<svg xmlns="http://www.w3.org/2000/svg" width="180" height="60" viewBox="0 0 180 60">
    <defs>
        <style>
            .cls-1{fill:#c2041f}
        </style>
    </defs>
    <g id="Group_325" transform="translate(-38 -22)">
        <g id="Group_49" transform="translate(-670.13 1284.115)">
            <path id="Path_85" d="M1621.3-1243.869h7.048c.276 0 .554-.013.828.013a1.561 1.561 0 0 1 1.419 1.517 1.6 1.6 0 0 1-1.344 1.6 6.631 6.631 0 0 1-.932.02h-13.682a5.483 5.483 0 0 0-1.439.125 4.123 4.123 0 0 0-3.127 4.32 4.1 4.1 0 0 0 3.732 3.8c.411.042.828.037 1.242.038h7.463a11.9 11.9 0 0 1 2.163.167 7.408 7.408 0 0 1 5.943 7.018 7.39 7.39 0 0 1-5.639 7.268 8.991 8.991 0 0 1-2.157.242q-6.841-.008-13.682 0a3.162 3.162 0 0 1-1.123-.136 1.635 1.635 0 0 1-1.133-1.457 1.648 1.648 0 0 1 1.156-1.549 3.255 3.255 0 0 1 1.127-.113h10.158c1.347 0 2.7-.042 4.042.01a4.14 4.14 0 0 0 3.915-2.966 4.186 4.186 0 0 0-1.725-4.62 3.877 3.877 0 0 0-1.844-.621c-.172-.014-.345-.012-.518-.014-2.969-.027-5.939-.066-8.909-.074a7.011 7.011 0 0 1-4.761-1.723 6.958 6.958 0 0 1-2.462-7.054 7.151 7.151 0 0 1 5.147-5.564 6.48 6.48 0 0 1 2.046-.257c2.348.014 4.696.01 7.048.01z" class="cls-1" transform="translate(-819.932 -1.168)"/>
            <path id="Path_86" d="M751.293-1218.869c-1.383 0-2.766.022-4.148 0a13.217 13.217 0 0 1-12.427-9.279 13.134 13.134 0 0 1 8.8-16.421 12.684 12.684 0 0 1 3.676-.541h8.5a5.778 5.778 0 0 1 .725.02 1.643 1.643 0 0 1 1.477 1.6 1.679 1.679 0 0 1-1.524 1.566 6.941 6.941 0 0 1-.725.009h-8.5a9.338 9.338 0 0 0-5.71 1.864 9.667 9.667 0 0 0-4.1 8.393 9.862 9.862 0 0 0 7.914 9.4 13.766 13.766 0 0 0 2.782.248q3.785.005 7.57 0c.276 0 .553.011.829.005a1.626 1.626 0 0 1 1.472 1.592 1.654 1.654 0 0 1-1.427 1.538 6.35 6.35 0 0 1-.725.014z" class="cls-1"/>
            <path id="Path_87" d="M2492.371-1239.027a2.035 2.035 0 0 0-.389.71q-3.811 8.836-7.628 17.669a7.959 7.959 0 0 1-.389.844 1.514 1.514 0 0 1-2.036.675 1.561 1.561 0 0 1-.794-2c.116-.325.263-.638.4-.955l9.221-21.379a5.868 5.868 0 0 1 .292-.662 1.572 1.572 0 0 1 2.784.023 5.918 5.918 0 0 1 .282.667q4.437 10.986 8.871 21.972c.09.224.168.452.249.679a1.591 1.591 0 0 1-.951 1.938 1.554 1.554 0 0 1-1.936-.751 5.671 5.671 0 0 1-.279-.667q-3.588-8.874-7.178-17.747a2.322 2.322 0 0 0-.519-1.016z" class="cls-1" transform="translate(-1641.184 -.149)"/>
            <path id="Path_88" d="M2067.07-1239.113c-.636 1.464-1.272 2.916-1.9 4.371q-3.03 7.033-6.055 14.067a7.327 7.327 0 0 1-.395.842 1.5 1.5 0 0 1-1.959.666 1.562 1.562 0 0 1-.885-1.97c.168-.488.393-.957.6-1.432q4.466-10.358 8.935-20.716a7.988 7.988 0 0 1 .434-.938 1.561 1.561 0 0 1 2.728 0 4.518 4.518 0 0 1 .294.66q4.417 10.939 8.83 21.879a6.049 6.049 0 0 1 .336.977 1.565 1.565 0 0 1-1.022 1.815 1.517 1.517 0 0 1-1.8-.638 5.551 5.551 0 0 1-.436-.935l-7.169-17.752c-.129-.308-.15-.689-.536-.896z" class="cls-1" transform="translate(-1241.677 -.084)"/>
            <path id="Path_89" d="M1193.962-1239.166c-.43.984-.817 1.862-1.2 2.743q-3.421 7.933-6.84 15.867a5.539 5.539 0 0 1-.355.746 1.591 1.591 0 0 1-1.588.752 1.72 1.72 0 0 1-1.316-1.317 1.311 1.311 0 0 1 .106-.806c.241-.572.472-1.148.717-1.718q4.426-10.261 8.857-20.519a6.056 6.056 0 0 1 .392-.842 1.551 1.551 0 0 1 2.72.054 4.533 4.533 0 0 1 .248.568q4.491 11.129 8.98 22.259c.064.16.131.319.185.483a1.568 1.568 0 0 1-.632 1.8 1.476 1.476 0 0 1-1.9-.148 2.379 2.379 0 0 1-.582-.964q-1.783-4.412-3.561-8.825l-3.636-9.019a3.031 3.031 0 0 0-.595-1.114z" class="cls-1" transform="translate(-421.37 -.07)"/>
        </g>
        <path id="Rectangle_403" fill="none" d="M0 0H180V60H0z" transform="translate(38 22)"/>
    </g>
</svg>
