<svg xmlns="http://www.w3.org/2000/svg" width="20" height="20" viewBox="0 0 20 20">
    <g>
        <path fill="none" d="M517.993 10.32c0 1.786.017 3.572 0 5.359a4.505 4.505 0 0 1-4.66 4.6q-5.306.014-10.614 0A4.531 4.531 0 0 1 498 15.552q.005-5.243 0-10.487a4.529 4.529 0 0 1 4.729-4.77q5.278-.021 10.557 0A4.523 4.523 0 0 1 518 5.019c.006 1.767 0 3.533 0 5.3z" transform="translate(-498 -.283)"/>
        <path fill="#12131c" d="M525.112 43.007a3.49 3.49 0 0 1-2.925-2.043l1.227-.116c-1.247-.659-2.236-1.468-2.252-3.064l1.159.335a3.6 3.6 0 0 1-.829-4.2 9.548 9.548 0 0 0 6.392 3.284v-.715a2.986 2.986 0 0 1 1.646-2.775 2.838 2.838 0 0 1 3.211.174 1.407 1.407 0 0 0 1.621.135c.246-.108.487-.227.73-.341l.135.092c-.355.476-.71.951-1.122 1.506l1.642-.413c-.454.467-.784.855-1.166 1.184a1.175 1.175 0 0 0-.442.987c-.008 3.146-2.594 7.82-7.342 8.522a9.851 9.851 0 0 1-5.926-1.034c-.043-.021-.067-.076-.15-.172a6.471 6.471 0 0 0 4.391-1.346z" transform="translate(-518.099 -29.494)"/>
    </g>
</svg>
