<svg xmlns="http://www.w3.org/2000/svg" width="20" height="20.002" viewBox="0 0 20 20.002">
    <defs>
        <style>
            .cls-2{fill:#12131c}
        </style>
    </defs>
    <g id="Group_65">
        <path id="Path_33" fill="none" d="M253.667 10.326V5.081a4.516 4.516 0 0 1 4.787-4.763q5.22-.014 10.44 0a4.559 4.559 0 0 1 4.767 4.743q.007 5.245 0 10.491a4.549 4.549 0 0 1-4.8 4.763h-10.382a4.521 4.521 0 0 1-4.81-4.851c0-1.718-.004-3.428-.002-5.138z" transform="translate(-253.665 -.311)"/>
        <path id="Path_36" d="M276.639 30.982c0-.981-.008-1.961 0-2.942a4.193 4.193 0 0 1 4.408-4.37c1.963-.006 3.925-.012 5.887 0a4.226 4.226 0 0 1 4.389 4.4c0 1.961.007 3.921 0 5.882a4.244 4.244 0 0 1-4.418 4.388q-2.944.012-5.887 0a4.229 4.229 0 0 1-4.38-4.416l.001-2.942zm7.369-5.92h-2.944a2.817 2.817 0 0 0-3.081 3.086q-.009 2.942 0 5.882a2.812 2.812 0 0 0 2.961 2.97q3.031.01 6.061 0a2.764 2.764 0 0 0 2.949-2.912q.019-3.085 0-6.17a2.769 2.769 0 0 0-2.832-2.855c-1.036-.015-2.075-.003-3.114-.001z" class="cls-2" transform="translate(-273.987 -20.969)"/>
        <path id="Path_37" d="M314.743 58.41a3.788 3.788 0 0 1-3.806 3.8 3.805 3.805 0 1 1 .017-7.61 3.772 3.772 0 0 1 3.789 3.81zm-6.257.014a2.464 2.464 0 1 0 2.48-2.492 2.472 2.472 0 0 0-2.48 2.492z" class="cls-2" transform="translate(-300.956 -48.336)"/>
        <path id="Path_38" d="M367.578 47.476a.891.891 0 0 1-.906-.849.883.883 0 1 1 1.765-.051.9.9 0 0 1-.859.9z" class="cls-2" transform="translate(-353.626 -40.472)"/>
    </g>
</svg>
